<svg width="274" height="202" viewBox="0 0 274 202" fill="none" xmlns="http://www.w3.org/2000/svg">
<mask id="mask0_4_1084" style="mask-type:luminance" maskUnits="userSpaceOnUse" x="97" y="104" width="88" height="53">
<path d="M97.7333 104.121H184.637V156.287H97.7333V104.121Z" fill="white"/>
</mask>
<g mask="url(#mask0_4_1084)">
<mask id="mask1_4_1084" style="mask-type:luminance" maskUnits="userSpaceOnUse" x="97" y="104" width="88" height="53">
<path fill-rule="evenodd" clip-rule="evenodd" d="M97.7723 115.857V105.314C97.7723 104.667 98.3026 104.133 98.9536 104.133H183.448C184.095 104.133 184.629 104.663 184.629 105.314V115.857H97.7723ZM128.612 127.167C125.395 130.387 125.395 135.624 128.619 138.84L141.205 151.425L152.277 140.419C152.917 139.783 153.65 139.121 154.234 138.435C157.007 135.195 156.878 130.259 153.864 127.171C150.644 124.021 145.408 124.021 142.183 127.179L142.043 127.319C141.778 127.584 141.396 127.709 141.018 127.651C140.655 127.592 140.347 127.37 140.172 127.054C136.928 124.013 131.789 124.056 128.612 127.167ZM140.367 153.924L126.947 140.505C123.426 136.984 122.904 131.577 125.376 127.495C126.074 126.344 126.943 125.381 128.011 124.574C129.852 123.19 132.093 122.438 134.452 122.438C136.959 122.438 139.333 123.284 141.236 124.839C143.139 123.284 145.513 122.438 148.02 122.438C150.207 122.438 152.293 123.085 154.051 124.282C155.069 124.972 155.852 125.732 156.566 126.727C157.872 128.535 158.578 130.711 158.578 132.996C158.578 135.487 157.74 137.846 156.2 139.745C155.552 140.544 154.71 141.312 153.993 142.025L142.031 153.921C141.571 154.384 140.823 154.384 140.367 153.924ZM183.444 156.26H98.9497C98.3026 156.26 97.7683 155.73 97.7683 155.078V118.211H184.622V155.078C184.626 155.73 184.095 156.26 183.444 156.26Z" fill="white"/>
</mask>
<g mask="url(#mask1_4_1084)">
<path d="M72.0727 125.834L133.929 199.077L210.325 134.559L148.469 61.3152L72.0727 125.834Z" fill="url(#paint0_linear_4_1084)"/>
</g>
</g>
<mask id="mask2_4_1084" style="mask-type:luminance" maskUnits="userSpaceOnUse" x="99" y="84" width="85" height="18">
<path d="M99.6758 84.6985H182.695V101.282H99.6758V84.6985Z" fill="white" stroke="white"/>
</mask>
<g mask="url(#mask2_4_1084)">
<mask id="mask3_4_1084" style="mask-type:luminance" maskUnits="userSpaceOnUse" x="99" y="84" width="85" height="18">
<path fill-rule="evenodd" clip-rule="evenodd" d="M154.543 96.5382H127.925C127.278 96.5382 126.744 96.0079 126.744 95.3568C126.744 94.7097 127.274 94.1754 127.925 94.1754H154.543C155.19 94.1754 155.724 94.7057 155.724 95.3568C155.724 96.0079 155.194 96.5382 154.543 96.5382ZM99.2071 101.774L106.568 84.9353C106.751 84.5065 107.18 84.2258 107.652 84.2258H134.405C135.08 84.9938 135.859 85.6956 136.725 86.3273C138.971 87.9569 141.684 88.7251 144.445 88.7251C148.067 88.7251 151.47 87.3058 154.02 84.7288C154.184 84.5649 154.34 84.3974 154.492 84.2258H174.75C175.222 84.2258 175.643 84.5065 175.834 84.9353L183.195 101.774H99.2071Z" fill="white"/>
</mask>
<g mask="url(#mask3_4_1084)">
<path d="M94.458 85.6222L105.89 124.504L187.944 100.378L176.512 61.4965L94.458 85.6222Z" fill="url(#paint1_linear_4_1084)"/>
</g>
</g>
<mask id="mask4_4_1084" style="mask-type:luminance" maskUnits="userSpaceOnUse" x="89" y="41" width="53" height="37">
<path d="M89 41H141.088V77.2977H89V41Z" fill="white"/>
</mask>
<g mask="url(#mask4_4_1084)">
<mask id="mask5_4_1084" style="mask-type:luminance" maskUnits="userSpaceOnUse" x="89" y="41" width="53" height="37">
<path fill-rule="evenodd" clip-rule="evenodd" d="M104.997 73.9408C104.634 73.5861 101.671 70.658 100.56 68.8451L89.6978 63.8469C89.2769 63.6559 89.0117 63.2348 89.0117 62.7787V42.2047C89.0117 41.7915 89.2262 41.4094 89.5809 41.1949C89.9357 40.9805 90.3685 40.965 90.7389 41.1599L107.219 49.7995H127.582C130.007 49.5656 132.257 50.3181 133.988 52.0491L139.201 57.9987C139.4 58.2131 140.285 59.1801 140.756 60.6538C140.924 61.1723 141.049 61.7883 141.057 62.4628C139.649 62.9619 138.339 63.7027 137.17 64.6266L134.191 63.9833L135.24 61.2892C135.478 60.6849 135.173 59.9988 134.569 59.7649C133.965 59.527 133.278 59.8311 133.045 60.4354L131.859 63.4805L129.278 62.9229L127.29 56.9578C127.083 56.3378 126.421 56.0064 125.801 56.213C125.181 56.4197 124.849 57.0825 125.056 57.7023L126.604 62.3419L122.3 61.4101C121.664 61.2697 121.04 61.6753 120.9 62.3108C120.76 62.9462 121.165 63.57 121.801 63.7104L126.787 64.7904C129.559 65.3909 132.335 65.9912 135.111 66.5916C142.363 68.2875 142.448 75.5822 133.431 75.2976C130.986 75.2196 128.378 74.9429 126.023 74.3191C124.799 74.2059 124.144 74.1631 122.67 74.9545C120.966 75.8824 118.268 77.0248 115.098 77.2237C111.913 77.5082 107.254 76.1905 104.997 73.9408Z" fill="white"/>
</mask>
<g mask="url(#mask5_4_1084)">
<path d="M70.7439 58.8625L115.183 104.221L160.716 59.6106L116.277 14.2522L70.7439 58.8625Z" fill="url(#paint2_linear_4_1084)"/>
</g>
</g>
<mask id="mask6_4_1084" style="mask-type:luminance" maskUnits="userSpaceOnUse" x="120" y="76" width="12" height="5">
<path d="M120.541 76.5569H131.536V80.8846H120.541V76.5569Z" fill="white"/>
</mask>
<g mask="url(#mask6_4_1084)">
<mask id="mask7_4_1084" style="mask-type:luminance" maskUnits="userSpaceOnUse" x="120" y="76" width="12" height="5">
<path fill-rule="evenodd" clip-rule="evenodd" d="M124.128 80.8691C123.613 80.8691 123.087 80.7676 122.604 80.5532C121.676 80.1478 120.958 79.4186 120.592 78.4946L120.568 78.4439C121.684 78.054 122.763 77.5784 123.785 77.0248C124.572 76.5999 124.767 76.4907 125.606 76.6389C127.536 76.9781 129.473 77.3328 131.427 77.5239C131.45 77.7461 131.481 77.9645 131.516 78.1827L125.516 80.6157C125.508 80.6157 125.508 80.6234 125.5 80.6234C125.052 80.7832 124.588 80.8691 124.128 80.8691Z" fill="white"/>
</mask>
<g mask="url(#mask7_4_1084)">
<path d="M118.716 77.5132L123.125 85.5009L133.369 79.8464L128.959 71.8588L118.716 77.5132Z" fill="url(#paint3_linear_4_1084)"/>
</g>
</g>
<mask id="mask8_4_1084" style="mask-type:luminance" maskUnits="userSpaceOnUse" x="116" y="78" width="5" height="3">
<path d="M116.292 78.7793H120.385V80.6117H116.292V78.7793Z" fill="white"/>
</mask>
<g mask="url(#mask8_4_1084)">
<mask id="mask9_4_1084" style="mask-type:luminance" maskUnits="userSpaceOnUse" x="116" y="78" width="5" height="3">
<path fill-rule="evenodd" clip-rule="evenodd" d="M118.958 80.5845C118.471 80.5845 117.991 80.487 117.527 80.2881C117.071 80.0971 116.662 79.8125 116.319 79.4655C117.368 79.3291 118.416 79.1029 119.442 78.8065C119.461 78.8573 119.481 78.904 119.5 78.9547C119.715 79.4655 120.003 79.9334 120.358 80.3388C120.144 80.3778 119.177 80.5845 118.958 80.5845Z" fill="white"/>
</mask>
<g mask="url(#mask9_4_1084)">
<path d="M115.523 79.2991L117.438 82.3921L121.154 80.0919L119.239 76.9989L115.523 79.2991Z" fill="url(#paint4_linear_4_1084)"/>
</g>
</g>
<mask id="mask10_4_1084" style="mask-type:luminance" maskUnits="userSpaceOnUse" x="133" y="64" width="23" height="23">
<path d="M133.875 64.2368H155.591V86.3819H133.875V64.2368Z" fill="white"/>
</mask>
<g mask="url(#mask10_4_1084)">
<mask id="mask11_4_1084" style="mask-type:luminance" maskUnits="userSpaceOnUse" x="133" y="64" width="23" height="23">
<path fill-rule="evenodd" clip-rule="evenodd" d="M151.595 75.4535C150.948 75.4535 150.414 74.9234 150.414 74.2722C150.414 72.2058 149.197 70.3773 147.318 69.6131C146.714 69.3714 146.425 68.6774 146.671 68.081C146.912 67.4767 147.606 67.1881 148.203 67.4337C150.983 68.5604 152.772 71.2468 152.772 74.2761C152.772 74.9234 152.242 75.4535 151.595 75.4535ZM144.441 86.3663C142.172 86.3663 139.981 85.6956 138.109 84.4207C135.606 82.4831 134.296 80.1008 133.902 77.6603C135.863 77.6641 137.93 77.3406 139.637 76.362C140.429 75.9096 141.115 75.3248 141.645 74.623C141.657 74.9429 141.801 75.2548 142.066 75.477C142.752 76.054 143.548 76.3385 144.441 76.3385C145.135 76.3385 145.692 76.9351 145.692 77.6641C145.692 79.4265 143.111 79.403 143.111 77.6641C143.111 77.017 142.581 76.4829 141.93 76.4829C141.283 76.4829 140.749 77.013 140.749 77.6641C140.749 78.6505 141.131 79.5824 141.825 80.2725C142.238 80.6857 142.729 80.986 143.271 81.1652C143.361 81.7268 143.848 82.1594 144.437 82.1594C145.026 82.1594 145.521 81.7188 145.603 81.1535C147.026 80.6584 148.055 79.29 148.055 77.672C148.055 75.6367 146.433 73.9837 144.441 73.9837C144.094 73.9837 143.836 73.8862 143.571 73.6678C143.197 73.3559 142.694 73.3131 142.285 73.5198C142.487 73.0635 142.628 72.5724 142.694 72.0538C142.721 71.8589 142.733 71.6639 142.737 71.469C143.037 71.6405 143.415 71.6795 143.762 71.5392C144 71.4417 144.211 71.3988 144.433 71.3988C145.127 71.3988 145.684 71.9953 145.684 72.7244C145.684 73.3716 146.215 73.9057 146.866 73.9057C147.513 73.9057 148.047 73.3754 148.039 72.7321C148.039 71.1221 147.022 69.7496 145.61 69.2506C145.567 68.6424 145.053 68.155 144.433 68.155C143.825 68.155 143.318 68.6229 143.259 69.2194C143.135 69.2584 143.01 69.3012 142.885 69.3519C142.717 69.4182 142.577 69.5196 142.464 69.6405C142.16 68.6969 141.618 67.8314 140.92 67.0946C140.483 66.6385 140 66.2369 139.478 65.886C143.064 63.6169 147.848 63.3868 152.328 67.27C154.422 69.3636 155.58 72.1668 155.58 75.1533C155.58 78.1476 154.429 80.9548 152.336 83.0718C150.23 85.2005 147.427 86.3663 144.441 86.3663Z" fill="white"/>
</mask>
<g mask="url(#mask11_4_1084)">
<path d="M123.124 78.8569L148.496 96.5338L166.358 70.8962L140.986 53.2193L123.124 78.8569Z" fill="url(#paint5_linear_4_1084)"/>
</g>
</g>
<path d="M59 163H222V201H59V163Z" fill="#D0F7F0"/>
<path d="M96.64 189.7C96.5467 189.767 96.42 189.8 96.26 189.8C96.02 189.8 95.8467 189.7 95.74 189.5C95.6333 189.287 95.3933 188.833 95.02 188.14C93.86 188.847 92.5867 189.2 91.2 189.2C89.8533 189.2 88.64 188.907 87.56 188.32C86.48 187.72 85.6267 186.873 85 185.78C84.3867 184.687 84.08 183.427 84.08 182C84.08 180.56 84.3867 179.3 85 178.22C85.6267 177.127 86.48 176.287 87.56 175.7C88.64 175.1 89.8533 174.8 91.2 174.8C92.5467 174.8 93.76 175.1 94.84 175.7C95.92 176.287 96.7667 177.127 97.38 178.22C98.0067 179.3 98.32 180.56 98.32 182C98.32 183.133 98.12 184.16 97.72 185.08C97.3333 185.987 96.7933 186.753 96.1 187.38C96.2067 187.607 96.3267 187.833 96.46 188.06L96.82 188.76C96.9 188.947 96.94 189.1 96.94 189.22C96.94 189.42 96.84 189.58 96.64 189.7ZM87.12 186.26C87.5867 185.607 88.18 185.087 88.9 184.7C89.6333 184.3 90.4267 184.1 91.28 184.1C92.16 184.1 92.9333 184.287 93.6 184.66C94.28 185.033 94.8533 185.547 95.32 186.2C95.8 185.693 96.1667 185.087 96.42 184.38C96.6867 183.673 96.82 182.88 96.82 182C96.82 180.747 96.5667 179.673 96.06 178.78C95.5667 177.887 94.8867 177.213 94.02 176.76C93.1667 176.307 92.2133 176.08 91.16 176.08C90.0933 176.08 89.1333 176.313 88.28 176.78C87.44 177.247 86.78 177.927 86.3 178.82C85.82 179.713 85.58 180.773 85.58 182C85.58 182.893 85.7133 183.7 85.98 184.42C86.26 185.14 86.64 185.753 87.12 186.26ZM91.2 187.92C92.3733 187.92 93.4133 187.627 94.32 187.04C93.5867 185.933 92.5867 185.38 91.32 185.38C90.6133 185.38 89.98 185.533 89.42 185.84C88.8733 186.147 88.44 186.56 88.12 187.08C89.0133 187.64 90.04 187.92 91.2 187.92ZM104.906 189.2C103.6 189.2 102.573 188.827 101.826 188.08C101.093 187.333 100.726 186.293 100.726 184.96V179.8C100.726 179.547 100.793 179.353 100.926 179.22C101.06 179.073 101.24 179 101.466 179C101.693 179 101.866 179.073 101.986 179.22C102.12 179.353 102.186 179.547 102.186 179.8V184.96C102.186 185.907 102.44 186.64 102.946 187.16C103.453 187.68 104.16 187.94 105.066 187.94C105.786 187.94 106.426 187.78 106.986 187.46C107.546 187.14 107.98 186.693 108.286 186.12C108.606 185.547 108.766 184.887 108.766 184.14V179.8C108.766 179.547 108.826 179.353 108.946 179.22C109.08 179.073 109.266 179 109.506 179C109.733 179 109.906 179.073 110.026 179.22C110.16 179.353 110.226 179.547 110.226 179.8V188.4C110.226 188.653 110.16 188.853 110.026 189C109.906 189.133 109.733 189.2 109.506 189.2C109.266 189.2 109.08 189.127 108.946 188.98C108.826 188.833 108.766 188.64 108.766 188.4V187.22C108.273 187.86 107.7 188.353 107.046 188.7C106.393 189.033 105.68 189.2 104.906 189.2ZM117.933 189.2C116.199 189.2 114.859 188.753 113.913 187.86C112.966 186.967 112.493 185.7 112.493 184.06C112.493 182.487 112.973 181.253 113.933 180.36C114.893 179.453 116.206 179 117.873 179C118.899 179 119.813 179.167 120.613 179.5C121.413 179.82 122.033 180.28 122.473 180.88C122.926 181.467 123.153 182.14 123.153 182.9C123.153 183.46 122.993 183.893 122.673 184.2C122.366 184.507 121.939 184.66 121.393 184.66H113.993C113.993 185.687 114.339 186.493 115.033 187.08C115.726 187.653 116.693 187.94 117.933 187.94C118.693 187.94 119.346 187.86 119.893 187.7C120.439 187.527 120.953 187.253 121.433 186.88C121.686 186.667 121.893 186.56 122.053 186.56C122.173 186.56 122.286 186.613 122.393 186.72C122.579 186.88 122.673 187.047 122.673 187.22C122.673 187.353 122.593 187.5 122.433 187.66C121.886 188.18 121.246 188.567 120.513 188.82C119.779 189.073 118.919 189.2 117.933 189.2ZM120.953 183.48C121.193 183.48 121.373 183.433 121.493 183.34C121.613 183.233 121.673 183.047 121.673 182.78C121.673 182.3 121.513 181.867 121.193 181.48C120.873 181.093 120.419 180.793 119.833 180.58C119.259 180.367 118.606 180.26 117.873 180.26C116.686 180.26 115.746 180.553 115.053 181.14C114.373 181.713 114.033 182.493 114.033 183.48H120.953ZM126.156 189.2C125.929 189.2 125.749 189.133 125.616 189C125.496 188.853 125.436 188.653 125.436 188.4V179.8C125.436 179.547 125.496 179.353 125.616 179.22C125.736 179.073 125.916 179 126.156 179C126.382 179 126.556 179.073 126.676 179.22C126.809 179.353 126.876 179.547 126.876 179.8V181C127.782 179.8 129.036 179.2 130.636 179.2H131.136C131.389 179.2 131.589 179.26 131.736 179.38C131.882 179.487 131.956 179.64 131.956 179.84C131.956 180.04 131.882 180.193 131.736 180.3C131.589 180.407 131.389 180.46 131.136 180.46H130.576C129.442 180.46 128.542 180.787 127.876 181.44C127.222 182.08 126.896 182.953 126.896 184.06V188.4C126.896 188.64 126.829 188.833 126.696 188.98C126.576 189.127 126.396 189.2 126.156 189.2ZM138.13 189.2C136.97 189.2 135.977 188.967 135.15 188.5C134.323 188.033 133.697 187.413 133.27 186.64C132.857 185.853 132.65 185.007 132.65 184.1C132.65 183.193 132.857 182.353 133.27 181.58C133.697 180.793 134.323 180.167 135.15 179.7C135.977 179.233 136.97 179 138.13 179C139.29 179 140.277 179.233 141.09 179.7C141.917 180.167 142.537 180.793 142.95 181.58C143.377 182.353 143.59 183.193 143.59 184.1C143.59 185.007 143.377 185.853 142.95 186.64C142.537 187.413 141.917 188.033 141.09 188.5C140.277 188.967 139.29 189.2 138.13 189.2ZM138.13 187.94C139.33 187.94 140.29 187.6 141.01 186.92C141.743 186.24 142.11 185.3 142.11 184.1C142.11 182.9 141.743 181.96 141.01 181.28C140.29 180.6 139.33 180.26 138.13 180.26C136.917 180.26 135.943 180.6 135.21 181.28C134.49 181.96 134.13 182.9 134.13 184.1C134.13 185.3 134.49 186.24 135.21 186.92C135.943 187.6 136.917 187.94 138.13 187.94ZM156.036 189.2C154.383 189.2 153.076 188.753 152.116 187.86C151.169 186.953 150.696 185.72 150.696 184.16C150.696 183.173 150.903 182.293 151.316 181.52C151.743 180.733 152.356 180.12 153.156 179.68C153.969 179.227 154.943 179 156.076 179C157.036 179 157.849 179.18 158.516 179.54C159.196 179.9 159.796 180.4 160.316 181.04L160.336 174.62C160.336 174.367 160.396 174.173 160.516 174.04C160.649 173.893 160.836 173.82 161.076 173.82C161.303 173.82 161.476 173.893 161.596 174.04C161.729 174.173 161.796 174.367 161.796 174.62V188.4C161.796 188.653 161.729 188.853 161.596 189C161.476 189.133 161.303 189.2 161.076 189.2C160.849 189.2 160.669 189.133 160.536 189C160.403 188.853 160.336 188.653 160.336 188.4V187.12C159.869 187.8 159.269 188.32 158.536 188.68C157.816 189.027 156.983 189.2 156.036 189.2ZM156.156 187.94C157.449 187.94 158.469 187.6 159.216 186.92C159.963 186.227 160.336 185.287 160.336 184.1C160.336 183.313 160.143 182.633 159.756 182.06C159.383 181.473 158.876 181.027 158.236 180.72C157.609 180.413 156.923 180.26 156.176 180.26C154.923 180.26 153.943 180.62 153.236 181.34C152.529 182.047 152.176 182.987 152.176 184.16C152.176 185.413 152.523 186.36 153.216 187C153.909 187.627 154.889 187.94 156.156 187.94ZM169.556 189.2C168.396 189.2 167.402 188.967 166.576 188.5C165.749 188.033 165.122 187.413 164.696 186.64C164.282 185.853 164.076 185.007 164.076 184.1C164.076 183.193 164.282 182.353 164.696 181.58C165.122 180.793 165.749 180.167 166.576 179.7C167.402 179.233 168.396 179 169.556 179C170.716 179 171.702 179.233 172.516 179.7C173.342 180.167 173.962 180.793 174.376 181.58C174.802 182.353 175.016 183.193 175.016 184.1C175.016 185.007 174.802 185.853 174.376 186.64C173.962 187.413 173.342 188.033 172.516 188.5C171.702 188.967 170.716 189.2 169.556 189.2ZM169.556 187.94C170.756 187.94 171.716 187.6 172.436 186.92C173.169 186.24 173.536 185.3 173.536 184.1C173.536 182.9 173.169 181.96 172.436 181.28C171.716 180.6 170.756 180.26 169.556 180.26C168.342 180.26 167.369 180.6 166.636 181.28C165.916 181.96 165.556 182.9 165.556 184.1C165.556 185.3 165.916 186.24 166.636 186.92C167.369 187.6 168.342 187.94 169.556 187.94ZM180.97 189.2C179.663 189.2 178.637 188.913 177.89 188.34C177.157 187.767 176.79 186.973 176.79 185.96C176.79 184.96 177.177 184.167 177.95 183.58C178.737 182.993 179.803 182.7 181.15 182.7C181.937 182.7 182.63 182.807 183.23 183.02C183.843 183.233 184.317 183.52 184.65 183.88V182.6C184.65 181.84 184.397 181.26 183.89 180.86C183.397 180.46 182.67 180.26 181.71 180.26C180.47 180.26 179.397 180.553 178.49 181.14C178.263 181.273 178.077 181.34 177.93 181.34C177.797 181.34 177.663 181.287 177.53 181.18C177.383 181.06 177.31 180.907 177.31 180.72C177.31 180.52 177.397 180.353 177.57 180.22C178.05 179.847 178.657 179.553 179.39 179.34C180.137 179.113 180.897 179 181.67 179C183.083 179 184.177 179.32 184.95 179.96C185.737 180.6 186.13 181.5 186.13 182.66V188.42C186.13 188.94 185.89 189.2 185.41 189.2C185.197 189.2 185.023 189.133 184.89 189C184.757 188.853 184.69 188.667 184.69 188.44V187.72C183.863 188.707 182.623 189.2 180.97 189.2ZM181.15 187.98C182.19 187.98 183.037 187.787 183.69 187.4C184.343 187 184.67 186.487 184.67 185.86C184.67 185.233 184.363 184.753 183.75 184.42C183.15 184.073 182.297 183.9 181.19 183.9C180.257 183.9 179.537 184.08 179.03 184.44C178.523 184.787 178.27 185.293 178.27 185.96C178.27 186.613 178.517 187.113 179.01 187.46C179.503 187.807 180.217 187.98 181.15 187.98ZM189.574 189.2C189.347 189.2 189.167 189.133 189.034 189C188.914 188.853 188.854 188.653 188.854 188.4V179.8C188.854 179.547 188.914 179.353 189.034 179.22C189.154 179.073 189.334 179 189.574 179C189.8 179 189.974 179.073 190.094 179.22C190.227 179.353 190.294 179.547 190.294 179.8V181C191.2 179.8 192.454 179.2 194.054 179.2H194.554C194.807 179.2 195.007 179.26 195.154 179.38C195.3 179.487 195.374 179.64 195.374 179.84C195.374 180.04 195.3 180.193 195.154 180.3C195.007 180.407 194.807 180.46 194.554 180.46H193.994C192.86 180.46 191.96 180.787 191.294 181.44C190.64 182.08 190.314 182.953 190.314 184.06V188.4C190.314 188.64 190.247 188.833 190.114 188.98C189.994 189.127 189.814 189.2 189.574 189.2ZM198.766 185.74C198.313 185.74 198.086 185.487 198.086 184.98L197.966 175.6C197.966 175.347 198.04 175.153 198.186 175.02C198.333 174.873 198.526 174.8 198.766 174.8C199.006 174.8 199.2 174.873 199.346 175.02C199.506 175.167 199.586 175.36 199.586 175.6L199.446 184.98C199.446 185.487 199.22 185.74 198.766 185.74ZM198.766 189.2C198.406 189.2 198.113 189.1 197.886 188.9C197.66 188.687 197.546 188.42 197.546 188.1C197.546 187.767 197.66 187.493 197.886 187.28C198.126 187.053 198.42 186.94 198.766 186.94C199.113 186.94 199.4 187.053 199.626 187.28C199.866 187.493 199.986 187.767 199.986 188.1C199.986 188.42 199.873 188.687 199.646 188.9C199.42 189.1 199.126 189.2 198.766 189.2Z" fill="#888AA1"/>
<defs>
<linearGradient id="paint0_linear_4_1084" x1="141.199" y1="61.3152" x2="141.199" y2="199.077" gradientUnits="userSpaceOnUse">
<stop stop-color="#6DBCC9"/>
<stop offset="0.395" stop-color="#63B2C3"/>
<stop offset="0.6" stop-color="#A5D3DD"/>
<stop offset="1" stop-color="#519FB7"/>
</linearGradient>
<linearGradient id="paint1_linear_4_1084" x1="141.201" y1="61.4965" x2="141.201" y2="124.504" gradientUnits="userSpaceOnUse">
<stop stop-color="#6DBCC9"/>
<stop offset="0.395" stop-color="#63B2C3"/>
<stop offset="0.6" stop-color="#A5D3DD"/>
<stop offset="1" stop-color="#519FB7"/>
</linearGradient>
<linearGradient id="paint2_linear_4_1084" x1="115.73" y1="14.2522" x2="115.73" y2="104.221" gradientUnits="userSpaceOnUse">
<stop stop-color="#6DBCC9"/>
<stop offset="0.395" stop-color="#63B2C3"/>
<stop offset="0.6" stop-color="#A5D3DD"/>
<stop offset="1" stop-color="#519FB7"/>
</linearGradient>
<linearGradient id="paint3_linear_4_1084" x1="126.042" y1="71.8588" x2="126.042" y2="85.5009" gradientUnits="userSpaceOnUse">
<stop stop-color="#888AA1"/>
<stop offset="0.395" stop-color="#63B2C3"/>
<stop offset="0.6" stop-color="#D0F7F0"/>
<stop offset="1" stop-color="#888AA1"/>
</linearGradient>
<linearGradient id="paint4_linear_4_1084" x1="118.338" y1="76.9989" x2="118.338" y2="82.3921" gradientUnits="userSpaceOnUse">
<stop stop-color="#888AA1"/>
<stop offset="0.395" stop-color="#63B2C3"/>
<stop offset="0.6" stop-color="#D0F7F0"/>
<stop offset="1" stop-color="#888AA1"/>
</linearGradient>
<linearGradient id="paint5_linear_4_1084" x1="144.741" y1="53.2193" x2="144.741" y2="96.5338" gradientUnits="userSpaceOnUse">
<stop stop-color="#888AA1"/>
<stop offset="0.395" stop-color="#63B2C3"/>
<stop offset="0.6" stop-color="#D0F7F0"/>
<stop offset="1" stop-color="#888AA1"/>
</linearGradient>
</defs>
</svg>
